Latin-Mizra-SemiBold - With Production Names.ufo
<glyph name="quotedbl" format="1">
  <advance width="311"/>
  <unicode hex="0022"/>
  <outline>
    <contour>
      <point x="276" y="310" type="line"/>
      <point x="276" y="403"/>
      <point x="277" y="470"/>
      <point x="288" y="549" type="curve"/>
      <point x="247" y="549"/>
      <point x="220" y="544"/>
      <point x="186" y="532" type="curve"/>
      <point x="186" y="375" type="line"/>
      <point x="209" y="354"/>
      <point x="231" y="333"/>
      <point x="249" y="310" type="curve"/>
    </contour>
    <contour>
      <point x="123" y="310" type="line"/>
      <point x="123" y="403"/>
      <point x="124" y="470"/>
      <point x="135" y="549" type="curve"/>
      <point x="94" y="549"/>
      <point x="67" y="544"/>
      <point x="33" y="532" type="curve"/>
      <point x="33" y="375" type="line"/>
      <point x="56" y="354"/>
      <point x="78" y="333"/>
      <point x="96" y="310" type="curve"/>
    </contour>
  </outline>
</glyph>
<glyph name="ampersand" format="1">
  <advance width="568"/>
  <unicode hex="0026"/>
  <outline>
    <contour>
      <point x="260" y="-11"/>
      <point x="312" y="12"/>
      <point x="352" y="45" type="curve"/>
      <point x="410" y="-6" type="line"/>
      <point x="477" y="-6"/>
      <point x="521" y="0"/>
      <point x="565" y="15" type="curve"/>
      <point x="521" y="46"/>
      <point x="472" y="88"/>
      <point x="426" y="134" type="curve"/>
      <point x="462" y="189"/>
      <point x="489" y="250"/>
      <point x="524" y="294" type="curve"/>
      <point x="489" y="294"/>
      <point x="462" y="293"/>
      <point x="412" y="288" type="curve"/>
      <point x="409" y="248"/>
      <point x="400" y="210"/>
      <point x="384" y="176" type="curve"/>
      <point x="300" y="267"/>
      <point x="233" y="361"/>
      <point x="233" y="400" type="curve" smooth="yes"/>
      <point x="233" y="442"/>
      <point x="263" y="469"/>
      <point x="309" y="469" type="curve"/>
      <point x="356" y="448"/>
      <point x="399" y="414"/>
      <point x="432" y="371" type="curve"/>
      <point x="454" y="393"/>
      <point x="476" y="457"/>
      <point x="476" y="499" type="curve"/>
      <point x="431" y="521"/>
      <point x="378" y="533"/>
      <point x="320" y="533" type="curve" smooth="yes"/>
      <point x="189" y="533"/>
      <point x="110" y="480"/>
      <point x="110" y="392" type="curve" smooth="yes"/>
      <point x="110" y="361"/>
      <point x="124" y="322"/>
      <point x="152" y="277" type="curve"/>
      <point x="66" y="246"/>
      <point x="23" y="194"/>
      <point x="23" y="124" type="curve" smooth="yes"/>
      <point x="23" y="43"/>
      <point x="90" y="-11"/>
      <point x="189" y="-11" type="curve" smooth="yes"/>
    </contour>
    <contour>
      <point x="187" y="59"/>
      <point x="152" y="93"/>
      <point x="152" y="143" type="curve" smooth="yes"/>
      <point x="152" y="177"/>
      <point x="165" y="205"/>
      <point x="187" y="226" type="curve"/>
      <point x="219" y="183"/>
      <point x="260" y="135"/>
      <point x="311" y="84" type="curve"/>
      <point x="288" y="69"/>
      <point x="264" y="59"/>
      <point x="237" y="59" type="curve" smooth="yes"/>
    </contour>
  </outline>
</glyph>
<glyph name="parenleft" format="1">
  <advance width="341"/>
  <unicode hex="0028"/>
  <outline>
    <contour>
      <point x="332" y="-104"/>
      <point x="334" y="-90"/>
      <point x="334" y="-77" type="curve" smooth="yes"/>
      <point x="334" y="-56"/>
      <point x="332" y="-37"/>
      <point x="329" y="-17" type="curve"/>
      <point x="290" y="-23"/>
      <point x="257" y="-26"/>
      <point x="230" y="-26" type="curve"/>
      <point x="193" y="-16"/>
      <point x="174" y="125"/>
      <point x="174" y="264" type="curve" smooth="yes"/>
      <point x="174" y="403"/>
      <point x="193" y="540"/>
      <point x="230" y="550" type="curve"/>
      <point x="257" y="550"/>
      <point x="290" y="547"/>
      <point x="329" y="541" type="curve"/>
      <point x="332" y="563"/>
      <point x="334" y="583"/>
      <point x="334" y="605" type="curve" smooth="yes"/>
      <point x="334" y="618"/>
      <point x="332" y="632"/>
      <point x="329" y="647" type="curve"/>
      <point x="137" y="647"/>
      <point x="40" y="506"/>
      <point x="40" y="264" type="curve" smooth="yes"/>
      <point x="40" y="23"/>
      <point x="137" y="-119"/>
      <point x="329" y="-119" type="curve"/>
    </contour>
  </outline>
</glyph>
<glyph name="period" format="1">
  <advance width="210"/>
  <unicode hex="002E"/>
  <outline>
    <contour>
      <point x="137" y="11"/>
      <point x="164" y="38"/>
      <point x="190" y="70" type="curve"/>
      <point x="158" y="96"/>
      <point x="131" y="123"/>
      <point x="105" y="155" type="curve"/>
      <point x="73" y="129"/>
      <point x="46" y="102"/>
      <point x="20" y="70" type="curve"/>
      <point x="52" y="44"/>
      <point x="79" y="17"/>
      <point x="105" y="-15" type="curve"/>
    </contour>
  </outline>
</glyph>
<glyph name="slash" format="1">
  <advance width="328"/>
  <unicode hex="002F"/>
  <outline>
    <contour>
      <point x="102" y="-87"/>
      <point x="121" y="-83"/>
      <point x="138" y="-78" type="curve"/>
      <point x="143" y="16"/>
      <point x="248" y="447"/>
      <point x="292" y="605" type="curve"/>
      <point x="274" y="610"/>
      <point x="258" y="614"/>
      <point x="244" y="614" type="curve" smooth="yes"/>
      <point x="226" y="614"/>
      <point x="208" y="610"/>
      <point x="191" y="605" type="curve"/>
      <point x="186" y="511"/>
      <point x="80" y="80"/>
      <point x="37" y="-78" type="curve"/>
      <point x="55" y="-83"/>
      <point x="70" y="-87"/>
      <point x="84" y="-87" type="curve" smooth="yes"/>
    </contour>
  </outline>
</glyph>
<glyph name="zero" format="1">
  <advance width="581"/>
  <unicode hex="0030"/>
  <outline>
    <contour>
      <point x="437" y="-11"/>
      <point x="552" y="108"/>
      <point x="552" y="278" type="curve" smooth="yes"/>
      <point x="552" y="431"/>
      <point x="458" y="533"/>
      <point x="317" y="533" type="curve" smooth="yes"/>
      <point x="147" y="533"/>
      <point x="28" y="416"/>
      <point x="28" y="250" type="curve" smooth="yes"/>
      <point x="28" y="94"/>
      <point x="126" y="-11"/>
      <point x="271" y="-11" type="curve" smooth="yes"/>
    </contour>
    <contour>
      <point x="208" y="88"/>
      <point x="154" y="163"/>
      <point x="154" y="277" type="curve" smooth="yes"/>
      <point x="154" y="385"/>
      <point x="216" y="465"/>
      <point x="303" y="465" type="curve"/>
      <point x="381" y="448"/>
      <point x="427" y="376"/>
      <point x="427" y="271" type="curve" smooth="yes"/>
      <point x="427" y="158"/>
      <point x="373" y="88"/>
      <point x="287" y="88" type="curve" smooth="yes"/>
    </contour>
  </outline>
</glyph>
<glyph name="one" format="1">
  <advance width="346"/>
  <unicode hex="0031"/>
  <outline>
    <contour>
      <point x="254" y="-6"/>
      <point x="277" y="-4"/>
      <point x="299" y="0" type="curve"/>
      <point x="288" y="29"/>
      <point x="283" y="104"/>
      <point x="283" y="227" type="curve" smooth="yes"/>
      <point x="283" y="327"/>
      <point x="288" y="458"/>
      <point x="294" y="527" type="curve"/>
      <point x="267" y="531"/>
      <point x="244" y="533"/>
      <point x="223" y="533" type="curve"/>
      <point x="208" y="515"/>
      <point x="161" y="480"/>
      <point x="118" y="455" type="curve" smooth="yes"/>
      <point x="83" y="435"/>
      <point x="47" y="416"/>
      <point x="7" y="396" type="curve"/>
      <point x="19" y="362"/>
      <point x="32" y="334"/>
      <point x="53" y="305" type="curve"/>
      <point x="163" y="375" type="line"/>
      <point x="165" y="350"/>
      <point x="165" y="323"/>
      <point x="165" y="293" type="curve" smooth="yes"/>
      <point x="165" y="197"/>
      <point x="160" y="71"/>
      <point x="154" y="0" type="curve"/>
      <point x="183" y="-4"/>
      <point x="209" y="-6"/>
      <point x="231" y="-6" type="curve" smooth="yes"/>
    </contour>
  </outline>
</glyph>
<glyph name="three" format="1">
  <advance width="490"/>
  <unicode hex="0033"/>
  <outline>
    <contour>
      <point x="374" y="-11"/>
      <point x="457" y="48"/>
      <point x="457" y="158" type="curve" smooth="yes"/>
      <point x="457" y="236"/>
      <point x="391" y="299"/>
      <point x="299" y="310" type="curve"/>
      <point x="360" y="356" type="line" smooth="yes"/>
      <point x="417" y="398"/>
      <point x="441" y="433"/>
      <point x="441" y="473" type="curve" smooth="yes"/>
      <point x="441" y="502"/>
      <point x="428" y="530"/>
      <point x="406" y="546" type="curve"/>
      <point x="368" y="525"/>
      <point x="312" y="516"/>
      <point x="211" y="516" type="curve" smooth="yes"/>
      <point x="137" y="516"/>
      <point x="79" y="520"/>
      <point x="51" y="527" type="curve"/>
      <point x="51" y="483"/>
      <point x="63" y="428"/>
      <point x="79" y="392" type="curve"/>
      <point x="102" y="405"/>
      <point x="131" y="410"/>
      <point x="185" y="410" type="curve" smooth="yes"/>
      <point x="251" y="410"/>
      <point x="303" y="409"/>
      <point x="340" y="408" type="curve"/>
      <point x="179" y="288" type="line" smooth="yes"/>
      <point x="155" y="270"/>
      <point x="142" y="252"/>
      <point x="137" y="237" type="curve"/>
      <point x="137" y="226"/>
      <point x="166" y="209"/>
      <point x="185" y="209" type="curve"/>
      <point x="202" y="236"/>
      <point x="232" y="255"/>
      <point x="258" y="255" type="curve"/>
      <point x="302" y="238"/>
      <point x="327" y="203"/>
      <point x="327" y="158" type="curve" smooth="yes"/>
      <point x="327" y="96"/>
      <point x="283" y="60"/>
      <point x="207" y="60" type="curve" smooth="yes"/>
      <point x="142" y="60"/>
      <point x="83" y="83"/>
      <point x="51" y="121" type="curve"/>
      <point x="38" y="87"/>
      <point x="33" y="63"/>
      <point x="33" y="35" type="curve"/>
      <point x="86" y="5"/>
      <point x="151" y="-11"/>
      <point x="221" y="-11" type="curve" smooth="yes"/>
    </contour>
  </outline>
</glyph>
<glyph name="four" format="1">
  <advance width="497"/>
  <unicode hex="0034"/>
  <outline>
    <contour>
      <point x="373" y="-6"/>
      <point x="396" y="-4"/>
      <point x="418" y="0" type="curve"/>
      <point x="410" y="26"/>
      <point x="405" y="56"/>
      <point x="403" y="106" type="curve"/>
      <point x="447" y="101" type="line"/>
      <point x="463" y="135"/>
      <point x="474" y="186"/>
      <point x="474" y="226" type="curve"/>
      <point x="456" y="219"/>
      <point x="433" y="214"/>
      <point x="403" y="211" type="curve"/>
      <point x="405" y="261"/>
      <point x="409" y="312"/>
      <point x="413" y="343" type="curve"/>
      <point x="384" y="347"/>
      <point x="358" y="349"/>
      <point x="336" y="349" type="curve" smooth="yes"/>
      <point x="313" y="349"/>
      <point x="290" y="347"/>
      <point x="268" y="343" type="curve"/>
      <point x="277" y="312"/>
      <point x="282" y="277"/>
      <point x="284" y="208" type="curve"/>
      <point x="227" y="208"/>
      <point x="167" y="209"/>
      <point x="119" y="210" type="curve"/>
      <point x="225" y="370"/>
      <point x="317" y="471"/>
      <point x="368" y="515" type="curve"/>
      <point x="325" y="539"/>
      <point x="281" y="546"/>
      <point x="224" y="546" type="curve"/>
      <point x="169" y="459"/>
      <point x="88" y="322"/>
      <point x="39" y="238" type="curve" smooth="yes"/>
      <point x="22" y="207"/>
      <point x="13" y="179"/>
      <point x="13" y="151" type="curve" smooth="yes"/>
      <point x="13" y="126"/>
      <point x="23" y="106"/>
      <point x="42" y="92" type="curve"/>
      <point x="78" y="107"/>
      <point x="133" y="112"/>
      <point x="232" y="112" type="curve" smooth="yes"/>
      <point x="282" y="112" type="line"/>
      <point x="280" y="69"/>
      <point x="277" y="27"/>
      <point x="273" y="0" type="curve"/>
      <point x="302" y="-4"/>
      <point x="328" y="-6"/>
      <point x="350" y="-6" type="curve" smooth="yes"/>
    </contour>
  </outline>
</glyph>
<glyph name="seven" format="1">
  <advance width="467"/>
  <unicode hex="0037"/>
  <outline>
    <contour>
      <point x="263" y="107"/>
      <point x="356" y="282"/>
      <point x="415" y="386" type="curve" smooth="yes"/>
      <point x="436" y="422"/>
      <point x="444" y="450"/>
      <point x="444" y="483" type="curve" smooth="yes"/>
      <point x="444" y="501"/>
      <point x="435" y="528"/>
      <point x="412" y="546" type="curve"/>
      <point x="376" y="524"/>
      <point x="322" y="516"/>
      <point x="228" y="516" type="curve" smooth="yes"/>
      <point x="140" y="516"/>
      <point x="60" y="520"/>
      <point x="23" y="527" type="curve"/>
      <point x="23" y="485"/>
      <point x="34" y="429"/>
      <point x="50" y="392" type="curve"/>
      <point x="72" y="405"/>
      <point x="102" y="410"/>
      <point x="153" y="410" type="curve" smooth="yes"/>
      <point x="215" y="410"/>
      <point x="282" y="409"/>
      <point x="337" y="408" type="curve"/>
      <point x="222" y="207"/>
      <point x="115" y="81"/>
      <point x="63" y="25" type="curve"/>
      <point x="106" y="1"/>
      <point x="150" y="-6"/>
      <point x="207" y="-6" type="curve"/>
    </contour>
  </outline>
</glyph>
<glyph name="A" format="1">
  <advance width="538"/>
  <unicode hex="0041"/>
  <outline>
    <contour>
      <point x="486" y="-5"/>
      <point x="511" y="-3"/>
      <point x="535" y="2" type="curve"/>
      <point x="494" y="75"/>
      <point x="369" y="411"/>
      <point x="330" y="529" type="curve"/>
      <point x="292" y="535"/>
      <point x="253" y="535"/>
      <point x="209" y="529" type="curve"/>
      <point x="170" y="411"/>
      <point x="45" y="75"/>
      <point x="4" y="2" type="curve"/>
      <point x="20" y="-2"/>
      <point x="37" y="-4"/>
      <point x="53" y="-4" type="curve" smooth="yes"/>
      <point x="65" y="-4"/>
      <point x="79" y="-2"/>
      <point x="94" y="2" type="curve"/>
      <point x="104" y="31"/>
      <point x="119" y="74"/>
      <point x="137" y="123" type="curve"/>
      <point x="159" y="126"/>
      <point x="191" y="127"/>
      <point x="233" y="127" type="curve" smooth="yes"/>
      <point x="270" y="127"/>
      <point x="313" y="126"/>
      <point x="348" y="124" type="curve"/>
      <point x="367" y="75"/>
      <point x="382" y="31"/>
      <point x="391" y="2" type="curve"/>
      <point x="418" y="-3"/>
      <point x="442" y="-5"/>
      <point x="461" y="-5" type="curve" smooth="yes"/>
    </contour>
    <contour>
      <point x="237" y="200"/>
      <point x="199" y="201"/>
      <point x="166" y="203" type="curve"/>
      <point x="192" y="274"/>
      <point x="221" y="348"/>
      <point x="243" y="401" type="curve"/>
      <point x="264" y="352"/>
      <point x="292" y="276"/>
      <point x="320" y="201" type="curve"/>
      <point x="305" y="200"/>
      <point x="287" y="200"/>
      <point x="270" y="200" type="curve" smooth="yes"/>
    </contour>
    <contour>
      <point x="535" y="2" type="move" name="ogonek"/>
    </contour>
    <contour>
      <point x="269" y="0" type="move" name="bottom"/>
    </contour>
    <contour>
      <point x="269" y="527" type="move" name="top"/>
    </contour>
  </outline>
</glyph>
<glyph name="B" format="1">
  <advance width="532"/>
  <unicode hex="0042"/>
  <outline>
    <contour>
      <point x="417" y="-12"/>
      <point x="500" y="44"/>
      <point x="500" y="144" type="curve" smooth="yes"/>
      <point x="500" y="205"/>
      <point x="459" y="253"/>
      <point x="394" y="279" type="curve"/>
      <point x="444" y="304"/>
      <point x="475" y="344"/>
      <point x="475" y="391" type="curve" smooth="yes"/>
      <point x="475" y="482"/>
      <point x="400" y="532"/>
      <point x="266" y="532" type="curve" smooth="yes"/>
      <point x="188" y="532"/>
      <point x="102" y="521"/>
      <point x="50" y="505" type="curve"/>
      <point x="61" y="479"/>
      <point x="66" y="416"/>
      <point x="66" y="303" type="curve" smooth="yes"/>
      <point x="66" y="198"/>
      <point x="62" y="72"/>
      <point x="57" y="15" type="curve"/>
      <point x="108" y="-1"/>
      <point x="193" y="-12"/>
      <point x="270" y="-12" type="curve" smooth="yes"/>
    </contour>
    <contour>
      <point x="235" y="49"/>
      <point x="212" y="53"/>
      <point x="190" y="61" type="curve"/>
      <point x="187" y="99"/>
      <point x="185" y="150"/>
      <point x="185" y="218" type="curve"/>
      <point x="227" y="234"/>
      <point x="267" y="243"/>
      <point x="290" y="243" type="curve"/>
      <point x="342" y="223"/>
      <point x="371" y="189"/>
      <point x="371" y="144" type="curve" smooth="yes"/>
      <point x="371" y="81"/>
      <point x="334" y="49"/>
      <point x="259" y="49" type="curve" smooth="yes"/>
    </contour>
    <contour>
      <point x="187" y="342"/>
      <point x="189" y="396"/>
      <point x="191" y="441" type="curve"/>
      <point x="212" y="448"/>
      <point x="232" y="451"/>
      <point x="255" y="451" type="curve" smooth="yes"/>
      <point x="316" y="451"/>
      <point x="346" y="427"/>
      <point x="346" y="380" type="curve" smooth="yes"/>
      <point x="346" y="351"/>
      <point x="328" y="320"/>
      <point x="295" y="300" type="curve"/>
      <point x="253" y="301"/>
      <point x="218" y="299"/>
      <point x="186" y="291" type="curve"/>
    </contour>
  </outline>
</glyph>
<glyph name="C" format="1">
  <advance width="497"/>
  <unicode hex="0043"/>
  <outline>
    <contour>
      <point x="350" y="-11"/>
      <point x="434" y="25"/>
      <point x="480" y="78" type="curve"/>
      <point x="465" y="134" type="line"/>
      <point x="427" y="108"/>
      <point x="365" y="92"/>
      <point x="307" y="92" type="curve" smooth="yes"/>
      <point x="215" y="92"/>
      <point x="162" y="148"/>
      <point x="162" y="269" type="curve" smooth="yes"/>
      <point x="162" y="356"/>
      <point x="210" y="441"/>
      <point x="269" y="459" type="curve"/>
      <point x="304" y="459"/>
      <point x="371" y="425"/>
      <point x="422" y="381" type="curve"/>
      <point x="444" y="403"/>
      <point x="466" y="467"/>
      <point x="466" y="509" type="curve"/>
      <point x="428" y="525"/>
      <point x="376" y="533"/>
      <point x="316" y="533" type="curve" smooth="yes"/>
      <point x="149" y="533"/>
      <point x="33" y="413"/>
      <point x="33" y="241" type="curve" smooth="yes"/>
      <point x="33" y="79"/>
      <point x="117" y="-11"/>
      <point x="270" y="-11" type="curve" smooth="yes"/>
    </contour>
    <contour>
      <point x="274" y="527" type="move" name="top"/>
    </contour>
    <contour>
      <point x="254" y="0" type="move" name="bottom"/>
    </contour>
  </outline>
</glyph>
<glyph name="F" format="1">
  <advance width="434"/>
  <unicode hex="0046"/>
  <outline>
    <contour>
      <point x="155" y="-6"/>
      <point x="178" y="-4"/>
      <point x="201" y="0" type="curve"/>
      <point x="190" y="29"/>
      <point x="185" y="102"/>
      <point x="185" y="226" type="curve"/>
      <point x="239" y="227"/>
      <point x="289" y="225"/>
      <point x="366" y="219" type="curve"/>
      <point x="368" y="238"/>
      <point x="370" y="254"/>
      <point x="370" y="266" type="curve" smooth="yes"/>
      <point x="370" y="279"/>
      <point x="368" y="293"/>
      <point x="366" y="312" type="curve"/>
      <point x="324" y="303"/>
      <point x="299" y="301"/>
      <point x="237" y="301" type="curve" smooth="yes"/>
      <point x="220" y="301"/>
      <point x="200" y="301"/>
      <point x="183" y="302" type="curve"/>
      <point x="183" y="343"/>
      <point x="185" y="397"/>
      <point x="186" y="422" type="curve"/>
      <point x="211" y="426"/>
      <point x="241" y="428"/>
      <point x="268" y="428" type="curve" smooth="yes"/>
      <point x="318" y="428"/>
      <point x="368" y="418"/>
      <point x="397" y="401" type="curve"/>
      <point x="408" y="418"/>
      <point x="418" y="480"/>
      <point x="418" y="527" type="curve"/>
      <point x="374" y="522"/>
      <point x="305" y="520"/>
      <point x="223" y="520" type="curve" smooth="yes"/>
      <point x="153" y="520"/>
      <point x="95" y="522"/>
      <point x="50" y="527" type="curve"/>
      <point x="63" y="472"/>
      <point x="66" y="414"/>
      <point x="66" y="277" type="curve" smooth="yes"/>
      <point x="66" y="185"/>
      <point x="61" y="63"/>
      <point x="55" y="0" type="curve"/>
      <point x="84" y="-4"/>
      <point x="110" y="-6"/>
      <point x="133" y="-6" type="curve" smooth="yes"/>
    </contour>
  </outline>
</glyph>
<glyph name="G" format="1">
  <advance width="532"/>
  <unicode hex="0047"/>
  <outline>
    <contour>
      <point x="349" y="-11"/>
      <point x="434" y="17"/>
      <point x="480" y="58" type="curve"/>
      <point x="481" y="128"/>
      <point x="485" y="203"/>
      <point x="490" y="252" type="curve"/>
      <point x="460" y="256"/>
      <point x="437" y="258"/>
      <point x="415" y="258" type="curve" smooth="yes"/>
      <point x="393" y="258"/>
      <point x="369" y="256"/>
      <point x="349" y="252" type="curve"/>
      <point x="359" y="228"/>
      <point x="364" y="174"/>
      <point x="365" y="88" type="curve"/>
      <point x="348" y="84"/>
      <point x="329" y="82"/>
      <point x="311" y="82" type="curve" smooth="yes"/>
      <point x="209" y="82"/>
      <point x="162" y="141"/>
      <point x="162" y="269" type="curve" smooth="yes"/>
      <point x="162" y="356"/>
      <point x="210" y="441"/>
      <point x="269" y="459" type="curve"/>
      <point x="307" y="459"/>
      <point x="379" y="425"/>
      <point x="432" y="381" type="curve"/>
      <point x="454" y="403"/>
      <point x="476" y="467"/>
      <point x="476" y="509" type="curve"/>
      <point x="437" y="525"/>
      <point x="382" y="533"/>
      <point x="316" y="533" type="curve" smooth="yes"/>
      <point x="149" y="533"/>
      <point x="33" y="413"/>
      <point x="33" y="241" type="curve" smooth="yes"/>
      <point x="33" y="79"/>
      <point x="117" y="-11"/>
      <point x="270" y="-11" type="curve" smooth="yes"/>
    </contour>
    <contour>
      <point x="287" y="527" type="move" name="top"/>
    </contour>
    <contour>
      <point x="267" y="0" type="move" name="bottom"/>
    </contour>
  </outline>
</glyph>
<glyph name="M" format="1">
  <advance width="713"/>
  <unicode hex="004D"/>
  <outline>
    <contour>
      <point x="116" y="-6"/>
      <point x="133" y="-4"/>
      <point x="149" y="0" type="curve"/>
      <point x="142" y="30"/>
      <point x="138" y="107"/>
      <point x="138" y="227" type="curve" smooth="yes"/>
      <point x="138" y="265"/>
      <point x="139" y="307"/>
      <point x="140" y="347" type="curve"/>
      <point x="199" y="223"/>
      <point x="267" y="71"/>
      <point x="298" y="0" type="curve"/>
      <point x="307" y="-3"/>
      <point x="315" y="-5"/>
      <point x="324" y="-5" type="curve" smooth="yes"/>
      <point x="333" y="-5"/>
      <point x="342" y="-3"/>
      <point x="352" y="0" type="curve"/>
      <point x="385" y="78"/>
      <point x="464" y="254"/>
      <point x="527" y="383" type="curve"/>
      <point x="528" y="358"/>
      <point x="528" y="330"/>
      <point x="528" y="300" type="curve" smooth="yes"/>
      <point x="528" y="196"/>
      <point x="523" y="66"/>
      <point x="517" y="0" type="curve"/>
      <point x="544" y="-4"/>
      <point x="568" y="-6"/>
      <point x="588" y="-6" type="curve" smooth="yes"/>
      <point x="613" y="-6"/>
      <point x="639" y="-4"/>
      <point x="663" y="0" type="curve"/>
      <point x="652" y="30"/>
      <point x="647" y="107"/>
      <point x="647" y="227" type="curve" smooth="yes"/>
      <point x="647" y="331"/>
      <point x="652" y="461"/>
      <point x="658" y="527" type="curve"/>
      <point x="629" y="531"/>
      <point x="603" y="533"/>
      <point x="580" y="533" type="curve" smooth="yes"/>
      <point x="556" y="533"/>
      <point x="530" y="531"/>
      <point x="512" y="527" type="curve"/>
      <point x="482" y="455"/>
      <point x="407" y="288"/>
      <point x="351" y="174" type="curve"/>
      <point x="298" y="282"/>
      <point x="221" y="454"/>
      <point x="190" y="527" type="curve"/>
      <point x="165" y="531"/>
      <point x="137" y="533"/>
      <point x="116" y="533" type="curve" smooth="yes"/>
      <point x="94" y="533"/>
      <point x="71" y="531"/>
      <point x="50" y="527" type="curve"/>
      <point x="59" y="468"/>
      <point x="62" y="397"/>
      <point x="62" y="293" type="curve" smooth="yes"/>
      <point x="62" y="191"/>
      <point x="59" y="65"/>
      <point x="54" y="0" type="curve"/>
      <point x="71" y="-4"/>
      <point x="87" y="-6"/>
      <point x="99" y="-6" type="curve" smooth="yes"/>
    </contour>
  </outline>
</glyph>
<glyph name="O" format="1">
  <advance width="611"/>
  <unicode hex="004F"/>
  <outline>
    <contour>
      <point x="454" y="-13"/>
      <point x="577" y="105"/>
      <point x="577" y="272" type="curve" smooth="yes"/>
      <point x="577" y="430"/>
      <point x="476" y="535"/>
      <point x="324" y="535" type="curve" smooth="yes"/>
      <point x="153" y="535"/>
      <point x="33" y="415"/>
      <point x="33" y="244" type="curve" smooth="yes"/>
      <point x="33" y="91"/>
      <point x="132" y="-13"/>
      <point x="279" y="-13" type="curve" smooth="yes"/>
    </contour>
    <contour>
      <point x="218" y="55"/>
      <point x="162" y="128"/>
      <point x="162" y="238" type="curve" smooth="yes"/>
      <point x="162" y="347"/>
      <point x="228" y="426"/>
      <point x="319" y="426" type="curve"/>
      <point x="398" y="407"/>
      <point x="449" y="330"/>
      <point x="449" y="229" type="curve" smooth="yes"/>
      <point x="449" y="123"/>
      <point x="392" y="55"/>
      <point x="302" y="55" type="curve" smooth="yes"/>
    </contour>
    <contour>
      <point x="306" y="264" type="move" name="center"/>
    </contour>
    <contour>
      <point x="550" y="10" type="move" name="ogonek"/>
    </contour>
    <contour>
      <point x="306" y="527" type="move" name="top"/>
    </contour>
    <contour>
      <point x="591" y="527" type="move" name="topright"/>
    </contour>
    <contour>
      <point x="20" y="527" type="move" name="topleft"/>
    </contour>
    <contour>
      <point x="306" y="0" type="move" name="bottom"/>
    </contour>
  </outline>
</glyph>
<glyph name="P" format="1">
  <advance width="497"/>
  <unicode hex="0050"/>
  <outline>
    <contour>
      <point x="155" y="-6"/>
      <point x="178" y="-4"/>
      <point x="201" y="0" type="curve"/>
      <point x="192" y="24"/>
      <point x="187" y="80"/>
      <point x="186" y="164" type="curve"/>
      <point x="204" y="161"/>
      <point x="224" y="160"/>
      <point x="245" y="160" type="curve" smooth="yes"/>
      <point x="381" y="160"/>
      <point x="475" y="240"/>
      <point x="475" y="356" type="curve" smooth="yes"/>
      <point x="475" y="469"/>
      <point x="396" y="532"/>
      <point x="255" y="532" type="curve" smooth="yes"/>
      <point x="178" y="532"/>
      <point x="94" y="521"/>
      <point x="50" y="505" type="curve"/>
      <point x="61" y="477"/>
      <point x="66" y="405"/>
      <point x="66" y="293" type="curve" smooth="yes"/>
      <point x="66" y="191"/>
      <point x="61" y="65"/>
      <point x="55" y="0" type="curve"/>
      <point x="84" y="-4"/>
      <point x="110" y="-6"/>
      <point x="133" y="-6" type="curve" smooth="yes"/>
    </contour>
    <contour>
      <point x="259" y="227"/>
      <point x="223" y="235"/>
      <point x="185" y="247" type="curve"/>
      <point x="185" y="313"/>
      <point x="188" y="388"/>
      <point x="191" y="446" type="curve"/>
      <point x="205" y="449"/>
      <point x="219" y="451"/>
      <point x="234" y="451" type="curve" smooth="yes"/>
      <point x="305" y="451"/>
      <point x="346" y="420"/>
      <point x="346" y="348" type="curve" smooth="yes"/>
      <point x="346" y="292"/>
      <point x="318" y="247"/>
      <point x="282" y="227" type="curve"/>
    </contour>
    <contour>
      <point x="250" y="527" type="move" name="top"/>
    </contour>
    <contour>
      <point x="250" y="0" type="move" name="bottom"/>
    </contour>
  </outline>
</glyph>
<glyph name="T" format="1">
  <advance width="453"/>
  <unicode hex="0054"/>
  <outline>
    <contour>
      <point x="259" y="-6"/>
      <point x="285" y="-4"/>
      <point x="302" y="0" type="curve"/>
      <point x="291" y="29"/>
      <point x="286" y="103"/>
      <point x="286" y="227" type="curve" smooth="yes"/>
      <point x="286" y="288"/>
      <point x="288" y="362"/>
      <point x="291" y="423" type="curve"/>
      <point x="350" y="422"/>
      <point x="406" y="419"/>
      <point x="441" y="416" type="curve"/>
      <point x="444" y="434"/>
      <point x="446" y="455"/>
      <point x="446" y="474" type="curve" smooth="yes"/>
      <point x="446" y="492"/>
      <point x="444" y="510"/>
      <point x="441" y="530" type="curve"/>
      <point x="417" y="521"/>
      <point x="357" y="517"/>
      <point x="256" y="517" type="curve" smooth="yes"/>
      <point x="172" y="517"/>
      <point x="67" y="521"/>
      <point x="12" y="526" type="curve"/>
      <point x="9" y="508"/>
      <point x="7" y="491"/>
      <point x="7" y="475" type="curve" smooth="yes"/>
      <point x="7" y="455"/>
      <point x="9" y="435"/>
      <point x="12" y="412" type="curve"/>
      <point x="33" y="420"/>
      <point x="83" y="424"/>
      <point x="164" y="425" type="curve"/>
      <point x="166" y="392"/>
      <point x="167" y="351"/>
      <point x="167" y="300" type="curve" smooth="yes"/>
      <point x="167" y="200"/>
      <point x="162" y="69"/>
      <point x="156" y="0" type="curve"/>
      <point x="186" y="-4"/>
      <point x="210" y="-6"/>
      <point x="231" y="-6" type="curve" smooth="yes"/>
    </contour>
    <contour>
      <point x="226" y="264" type="move" name="center"/>
    </contour>
    <contour>
      <point x="226" y="0" type="move" name="bottom"/>
    </contour>
    <contour>
      <point x="226" y="527" type="move" name="top"/>
    </contour>
  </outline>
</glyph>
<glyph name="W" format="1">
  <advance width="811"/>
  <unicode hex="0057"/>
  <outline>
    <contour>
      <point x="318" y="27" type="line"/>
      <point x="340" y="102"/>
      <point x="373" y="204"/>
      <point x="405" y="302" type="curve"/>
      <point x="458" y="129"/>
      <point x="482" y="-9"/>
      <point x="560" y="-9" type="curve"/>
      <point x="640" y="27" type="line"/>
      <point x="682" y="168"/>
      <point x="760" y="409"/>
      <point x="806" y="533" type="curve"/>
      <point x="764" y="533"/>
      <point x="733" y="530"/>
      <point x="699" y="522" type="curve"/>
      <point x="710" y="489"/>
      <point x="678" y="367"/>
      <point x="595" y="115" type="curve"/>
      <point x="580" y="148"/>
      <point x="563" y="194"/>
      <point x="543" y="260" type="curve" smooth="yes"/>
      <point x="520" y="339"/>
      <point x="493" y="462"/>
      <point x="483" y="533" type="curve"/>
      <point x="427" y="533"/>
      <point x="379" y="528"/>
      <point x="327" y="512" type="curve"/>
      <point x="365" y="420" type="line"/>
      <point x="349" y="354"/>
      <point x="319" y="254"/>
      <point x="273" y="115" type="curve"/>
      <point x="258" y="148"/>
      <point x="241" y="194"/>
      <point x="221" y="260" type="curve" smooth="yes"/>
      <point x="194" y="350"/>
      <point x="169" y="471"/>
      <point x="162" y="533" type="curve"/>
      <point x="100" y="533"/>
      <point x="53" y="526"/>
      <point x="5" y="512" type="curve"/>
      <point x="126" y="250"/>
      <point x="131" y="-9"/>
      <point x="238" y="-9" type="curve"/>
    </contour>
    <contour>
      <point x="405" y="527" type="move" name="top"/>
    </contour>
    <contour>
      <point x="405" y="0" type="move" name="bottom"/>
    </contour>
  </outline>
</glyph>
<glyph name="bracketleft" format="1">
  <advance width="356"/>
  <unicode hex="005B"/>
  <outline>
    <contour>
      <point x="324" y="-104"/>
      <point x="326" y="-86"/>
      <point x="326" y="-68" type="curve" smooth="yes"/>
      <point x="326" y="-49"/>
      <point x="324" y="-28"/>
      <point x="321" y="-10" type="curve"/>
      <point x="289" y="-13"/>
      <point x="239" y="-16"/>
      <point x="186" y="-17" type="curve"/>
      <point x="180" y="45"/>
      <point x="178" y="135"/>
      <point x="178" y="287" type="curve" smooth="yes"/>
      <point x="178" y="348"/>
      <point x="180" y="460"/>
      <point x="184" y="545" type="curve"/>
      <point x="235" y="543"/>
      <point x="282" y="541"/>
      <point x="313" y="538" type="curve"/>
      <point x="316" y="556"/>
      <point x="318" y="577"/>
      <point x="318" y="596" type="curve" smooth="yes"/>
      <point x="318" y="614"/>
      <point x="316" y="632"/>
      <point x="313" y="652" type="curve"/>
      <point x="292" y="645"/>
      <point x="240" y="639"/>
      <point x="151" y="639" type="curve" smooth="yes"/>
      <point x="115" y="639"/>
      <point x="80" y="640"/>
      <point x="50" y="643" type="curve"/>
      <point x="60" y="584"/>
      <point x="66" y="492"/>
      <point x="66" y="287" type="curve" smooth="yes"/>
      <point x="66" y="193"/>
      <point x="60" y="-23"/>
      <point x="55" y="-116" type="curve"/>
      <point x="94" y="-112"/>
      <point x="128" y="-111"/>
      <point x="159" y="-111" type="curve" smooth="yes"/>
      <point x="248" y="-111"/>
      <point x="300" y="-117"/>
      <point x="321" y="-124" type="curve"/>
    </contour>
  </outline>
</glyph>
<glyph name="e" format="1">
  <advance width="467"/>
  <unicode hex="0065"/>
  <outline>
    <contour>
      <point x="294" y="-11"/>
      <point x="374" y="25"/>
      <point x="417" y="78" type="curve"/>
      <point x="403" y="131" type="line"/>
      <point x="366" y="105"/>
      <point x="315" y="92"/>
      <point x="258" y="92" type="curve" smooth="yes"/>
      <point x="199" y="92"/>
      <point x="167" y="115"/>
      <point x="156" y="169" type="curve"/>
      <point x="254" y="171"/>
      <point x="361" y="185"/>
      <point x="432" y="202" type="curve"/>
      <point x="432" y="344"/>
      <point x="371" y="418"/>
      <point x="257" y="418" type="curve" smooth="yes"/>
      <point x="123" y="418"/>
      <point x="30" y="325"/>
      <point x="30" y="191" type="curve" smooth="yes"/>
      <point x="30" y="61"/>
      <point x="97" y="-11"/>
      <point x="217" y="-11" type="curve" smooth="yes"/>
    </contour>
    <contour>
      <point x="153" y="279"/>
      <point x="175" y="332"/>
      <point x="210" y="356" type="curve"/>
      <point x="261" y="356"/>
      <point x="298" y="311"/>
      <point x="299" y="253" type="curve"/>
      <point x="264" y="237"/>
      <point x="206" y="223"/>
      <point x="152" y="218" type="curve"/>
    </contour>
    <contour>
      <point x="319" y="10" type="move" name="ogonek"/>
    </contour>
    <contour>
      <point x="226" y="0" type="move" name="bottom"/>
    </contour>
    <contour>
      <point x="236" y="407" type="move" name="top"/>
    </contour>
  </outline>
</glyph>
<glyph name="f" format="1">
  <advance width="316"/>
  <unicode hex="0066"/>
  <outline>
    <contour>
      <point x="172" y="-83"/>
      <point x="205" y="-31"/>
      <point x="205" y="63" type="curve" smooth="yes"/>
      <point x="205" y="108"/>
      <point x="198" y="178"/>
      <point x="198" y="282" type="curve" smooth="yes"/>
      <point x="198" y="330" type="line"/>
      <point x="237" y="329"/>
      <point x="265" y="325"/>
      <point x="287" y="318" type="curve"/>
      <point x="299" y="347"/>
      <point x="304" y="371"/>
      <point x="304" y="404" type="curve"/>
      <point x="281" y="400"/>
      <point x="245" y="397"/>
      <point x="200" y="396" type="curve"/>
      <point x="204" y="469"/>
      <point x="213" y="494"/>
      <point x="233" y="509" type="curve"/>
      <point x="263" y="505"/>
      <point x="296" y="488"/>
      <point x="347" y="452" type="curve"/>
      <point x="361" y="476"/>
      <point x="377" y="537"/>
      <point x="377" y="568" type="curve"/>
      <point x="345" y="579"/>
      <point x="308" y="585"/>
      <point x="267" y="585" type="curve" smooth="yes"/>
      <point x="170" y="585"/>
      <point x="96" y="516"/>
      <point x="78" y="408" type="curve"/>
      <point x="58" y="393"/>
      <point x="37" y="380"/>
      <point x="12" y="368" type="curve"/>
      <point x="12" y="335"/>
      <point x="22" y="328"/>
      <point x="78" y="327" type="curve"/>
      <point x="94" y="-5"/>
      <point x="87" y="-61"/>
      <point x="38" y="-133" type="curve"/>
      <point x="66" y="-159" type="line"/>
    </contour>
    <contour>
      <point x="151" y="407" type="move" name="top"/>
    </contour>
    <contour>
      <point x="151" y="0" type="move" name="bottom"/>
    </contour>
  </outline>
</glyph>
<glyph name="k" format="1">
  <advance width="462"/>
  <unicode hex="006B"/>
  <outline>
    <contour>
      <point x="148" y="-6"/>
      <point x="171" y="-4"/>
      <point x="192" y="0" type="curve"/>
      <point x="182" y="21"/>
      <point x="175" y="64"/>
      <point x="172" y="129" type="curve"/>
      <point x="215" y="176" type="line"/>
      <point x="270" y="93"/>
      <point x="312" y="26"/>
      <point x="328" y="-6" type="curve"/>
      <point x="387" y="-6"/>
      <point x="440" y="-1"/>
      <point x="479" y="15" type="curve"/>
      <point x="431" y="51"/>
      <point x="361" y="156"/>
      <point x="297" y="266" type="curve"/>
      <point x="349" y="320"/>
      <point x="401" y="374"/>
      <point x="447" y="418" type="curve"/>
      <point x="407" y="418"/>
      <point x="372" y="416"/>
      <point x="324" y="407" type="curve"/>
      <point x="324" y="383"/>
      <point x="297" y="348"/>
      <point x="171" y="214" type="curve"/>
      <point x="171" y="227" type="line" smooth="yes"/>
      <point x="171" y="338"/>
      <point x="178" y="477"/>
      <point x="187" y="547" type="curve"/>
      <point x="130" y="547"/>
      <point x="87" y="541"/>
      <point x="43" y="527" type="curve"/>
      <point x="49" y="468"/>
      <point x="53" y="367"/>
      <point x="53" y="255" type="curve" smooth="yes"/>
      <point x="53" y="171"/>
      <point x="50" y="73"/>
      <point x="46" y="0" type="curve"/>
      <point x="76" y="-4"/>
      <point x="103" y="-6"/>
      <point x="127" y="-6" type="curve" smooth="yes"/>
    </contour>
    <contour>
      <point x="236" y="407" type="move" name="top"/>
    </contour>
    <contour>
      <point x="236" y="0" type="move" name="bottom"/>
    </contour>
  </outline>
</glyph>
<glyph name="o" format="1">
  <advance width="500"/>
  <unicode hex="006F"/>
  <outline>
    <contour>
      <point x="370" y="-11"/>
      <point x="470" y="82"/>
      <point x="470" y="215" type="curve" smooth="yes"/>
      <point x="470" y="337"/>
      <point x="387" y="418"/>
      <point x="264" y="418" type="curve" smooth="yes"/>
      <point x="126" y="418"/>
      <point x="30" y="325"/>
      <point x="30" y="192" type="curve" smooth="yes"/>
      <point x="30" y="70"/>
      <point x="110" y="-11"/>
      <point x="229" y="-11" type="curve" smooth="yes"/>
    </contour>
    <contour>
      <point x="190" y="47"/>
      <point x="149" y="100"/>
      <point x="149" y="184" type="curve" smooth="yes"/>
      <point x="149" y="263"/>
      <point x="192" y="312"/>
      <point x="260" y="312" type="curve"/>
      <point x="316" y="295"/>
      <point x="351" y="241"/>
      <point x="351" y="173" type="curve" smooth="yes"/>
      <point x="351" y="94"/>
      <point x="313" y="47"/>
      <point x="248" y="47" type="curve" smooth="yes"/>
    </contour>
    <contour>
      <point x="250" y="204" type="move" name="center"/>
    </contour>
    <contour>
      <point x="450" y="10" type="move" name="ogonek"/>
    </contour>
    <contour>
      <point x="250" y="407" type="move" name="top"/>
    </contour>
    <contour>
      <point x="480" y="407" type="move" name="topright"/>
    </contour>
    <contour>
      <point x="250" y="0" type="move" name="bottom"/>
    </contour>
  </outline>
</glyph>
<glyph name="s" format="1">
  <advance width="410"/>
  <unicode hex="0073"/>
  <outline>
    <contour>
      <point x="316" y="-11"/>
      <point x="383" y="36"/>
      <point x="383" y="116" type="curve" smooth="yes"/>
      <point x="383" y="252"/>
      <point x="167" y="252"/>
      <point x="167" y="312" type="curve" smooth="yes"/>
      <point x="167" y="326"/>
      <point x="181" y="338"/>
      <point x="200" y="342" type="curve"/>
      <point x="234" y="342"/>
      <point x="287" y="317"/>
      <point x="337" y="276" type="curve"/>
      <point x="353" y="302"/>
      <point x="369" y="363"/>
      <point x="369" y="394" type="curve"/>
      <point x="329" y="409"/>
      <point x="269" y="418"/>
      <point x="212" y="418" type="curve" smooth="yes"/>
      <point x="107" y="418"/>
      <point x="38" y="371"/>
      <point x="38" y="299" type="curve" smooth="yes"/>
      <point x="38" y="148"/>
      <point x="256" y="158"/>
      <point x="256" y="98" type="curve" smooth="yes"/>
      <point x="256" y="74"/>
      <point x="230" y="61"/>
      <point x="181" y="61" type="curve" smooth="yes"/>
      <point x="124" y="61"/>
      <point x="76" y="82"/>
      <point x="51" y="114" type="curve"/>
      <point x="37" y="82"/>
      <point x="32" y="57"/>
      <point x="32" y="25" type="curve"/>
      <point x="73" y="1"/>
      <point x="131" y="-11"/>
      <point x="198" y="-11" type="curve" smooth="yes"/>
    </contour>
    <contour>
      <point x="206" y="407" type="move" name="top"/>
    </contour>
    <contour>
      <point x="198" y="0" type="move" name="bottom"/>
    </contour>
  </outline>
</glyph>
<glyph name="u" format="1">
  <advance width="491"/>
  <unicode hex="0075"/>
  <outline>
    <contour>
      <point x="230" y="-11"/>
      <point x="278" y="11"/>
      <point x="312" y="48" type="curve"/>
      <point x="319" y="23"/>
      <point x="331" y="3"/>
      <point x="351" y="-11" type="curve"/>
      <point x="391" y="-6"/>
      <point x="432" y="10"/>
      <point x="464" y="34" type="curve"/>
      <point x="433" y="71"/>
      <point x="425" y="95"/>
      <point x="425" y="152" type="curve" smooth="yes"/>
      <point x="425" y="188"/>
      <point x="431" y="330"/>
      <point x="437" y="417" type="curve"/>
      <point x="380" y="417"/>
      <point x="337" y="411"/>
      <point x="293" y="397" type="curve"/>
      <point x="306" y="368"/>
      <point x="312" y="324"/>
      <point x="312" y="257" type="curve" smooth="yes"/>
      <point x="312" y="230"/>
      <point x="309" y="174"/>
      <point x="308" y="114" type="curve"/>
      <point x="287" y="100"/>
      <point x="264" y="94"/>
      <point x="235" y="94" type="curve" smooth="yes"/>
      <point x="197" y="94"/>
      <point x="181" y="112"/>
      <point x="181" y="162" type="curve" smooth="yes"/>
      <point x="181" y="265"/>
      <point x="183" y="362"/>
      <point x="187" y="417" type="curve"/>
      <point x="130" y="417"/>
      <point x="87" y="411"/>
      <point x="43" y="397" type="curve"/>
      <point x="56" y="368"/>
      <point x="62" y="324"/>
      <point x="62" y="257" type="curve" smooth="yes"/>
      <point x="62" y="226"/>
      <point x="58" y="156"/>
      <point x="58" y="127" type="curve" smooth="yes"/>
      <point x="58" y="35"/>
      <point x="99" y="-11"/>
      <point x="182" y="-11" type="curve" smooth="yes"/>
    </contour>
    <contour>
      <point x="404" y="0" type="move" name="ogonek"/>
    </contour>
    <contour>
      <point x="251" y="407" type="move" name="top"/>
    </contour>
    <contour>
      <point x="484" y="407" type="move" name="topright"/>
    </contour>
    <contour>
      <point x="257" y="0" type="move" name="bottom"/>
    </contour>
  </outline>
</glyph>
<glyph name="asciitilde" format="1">
  <advance width="533"/>
  <unicode hex="007E"/>
  <outline>
    <contour>
      <point x="418" y="199"/>
      <point x="460" y="222"/>
      <point x="473" y="301" type="curve"/>
      <point x="451" y="312"/>
      <point x="424" y="319"/>
      <point x="400" y="321" type="curve"/>
      <point x="392" y="294"/>
      <point x="374" y="284"/>
      <point x="350" y="284" type="curve" smooth="yes"/>
      <point x="287" y="284"/>
      <point x="226" y="332"/>
      <point x="164" y="332" type="curve" smooth="yes"/>
      <point x="115" y="332"/>
      <point x="73" y="308"/>
      <point x="60" y="230" type="curve"/>
      <point x="82" y="219"/>
      <point x="109" y="212"/>
      <point x="133" y="210" type="curve"/>
      <point x="141" y="236"/>
      <point x="159" y="246"/>
      <point x="183" y="246" type="curve" smooth="yes"/>
      <point x="246" y="246"/>
      <point x="307" y="199"/>
      <point x="369" y="199" type="curve" smooth="yes"/>
    </contour>
  </outline>
</glyph>
<glyph name="sterling" format="1">
  <advance width="514"/>
  <unicode hex="00A3"/>
  <outline>
    <contour>
      <point x="456" y="17"/>
      <point x="465" y="80"/>
      <point x="465" y="130" type="curve"/>
      <point x="426" y="114"/>
      <point x="357" y="104"/>
      <point x="290" y="104" type="curve" smooth="yes"/>
      <point x="252" y="104"/>
      <point x="209" y="106"/>
      <point x="178" y="109" type="curve"/>
      <point x="205" y="148"/>
      <point x="212" y="191"/>
      <point x="212" y="234" type="curve" smooth="yes"/>
      <point x="212" y="292"/>
      <point x="198" y="348"/>
      <point x="198" y="387" type="curve" smooth="yes"/>
      <point x="198" y="428"/>
      <point x="219" y="453"/>
      <point x="261" y="460" type="curve"/>
      <point x="309" y="449"/>
      <point x="356" y="425"/>
      <point x="412" y="381" type="curve"/>
      <point x="435" y="410"/>
      <point x="454" y="470"/>
      <point x="454" y="509" type="curve"/>
      <point x="411" y="524"/>
      <point x="339" y="533"/>
      <point x="267" y="533" type="curve" smooth="yes"/>
      <point x="144" y="533"/>
      <point x="68" y="480"/>
      <point x="68" y="395" type="curve" smooth="yes"/>
      <point x="68" y="303"/>
      <point x="117" y="236"/>
      <point x="117" y="170" type="curve" smooth="yes"/>
      <point x="117" y="130"/>
      <point x="99" y="90"/>
      <point x="38" y="45" type="curve"/>
      <point x="38" y="0" type="line"/>
      <point x="76" y="2"/>
      <point x="136" y="3"/>
      <point x="199" y="3" type="curve" smooth="yes"/>
      <point x="302" y="3"/>
      <point x="415" y="0"/>
      <point x="445" y="-5" type="curve"/>
    </contour>
    <component base="uni0335"/>
  </outline>
</glyph>
<glyph name="currency" format="1">
  <advance width="573"/>
  <unicode hex="00A4"/>
  <outline>
    <contour>
      <point x="480" y="401"/>
      <point x="513" y="432"/>
      <point x="538" y="454" type="curve"/>
      <point x="523" y="483"/>
      <point x="509" y="498"/>
      <point x="478" y="515" type="curve"/>
      <point x="465" y="496"/>
      <point x="436" y="463"/>
      <point x="393" y="417" type="curve"/>
      <point x="443" y="366" type="line"/>
    </contour>
    <contour>
      <point x="108" y="31"/>
      <point x="136" y="62"/>
      <point x="177" y="106" type="curve"/>
      <point x="126" y="158" type="line"/>
      <point x="91" y="123"/>
      <point x="59" y="94"/>
      <point x="35" y="73" type="curve"/>
      <point x="50" y="48"/>
      <point x="69" y="25"/>
      <point x="97" y="12" type="curve"/>
    </contour>
    <contour>
      <point x="503" y="27"/>
      <point x="523" y="44"/>
      <point x="538" y="73" type="curve"/>
      <point x="518" y="85"/>
      <point x="487" y="113"/>
      <point x="442" y="155" type="curve"/>
      <point x="391" y="104" type="line"/>
      <point x="426" y="68"/>
      <point x="455" y="36"/>
      <point x="476" y="12" type="curve"/>
    </contour>
    <contour>
      <point x="183" y="421" type="line"/>
      <point x="148" y="458"/>
      <point x="117" y="490"/>
      <point x="95" y="515" type="curve"/>
      <point x="69" y="500"/>
      <point x="51" y="483"/>
      <point x="35" y="454" type="curve"/>
      <point x="54" y="441"/>
      <point x="86" y="413"/>
      <point x="132" y="370" type="curve"/>
    </contour>
    <component base="o" xOffset="37" yOffset="61"/>
  </outline>
</glyph>
<glyph name="section" format="1">
  <advance width="467"/>
  <unicode hex="00A7"/>
  <outline>
    <contour>
      <point x="348" y="-188"/>
      <point x="417" y="-140"/>
      <point x="417" y="-50" type="curve" smooth="yes"/>
      <point x="417" y="-3"/>
      <point x="395" y="34"/>
      <point x="350" y="65" type="curve"/>
      <point x="395" y="89"/>
      <point x="417" y="127"/>
      <point x="417" y="178" type="curve" smooth="yes"/>
      <point x="417" y="337"/>
      <point x="173" y="331"/>
      <point x="173" y="416" type="curve" smooth="yes"/>
      <point x="173" y="437"/>
      <point x="189" y="457"/>
      <point x="211" y="461" type="curve"/>
      <point x="247" y="461"/>
      <point x="306" y="433"/>
      <point x="362" y="390" type="curve"/>
      <point x="383" y="416"/>
      <point x="400" y="470"/>
      <point x="400" y="508" type="curve"/>
      <point x="360" y="522"/>
      <point x="308" y="530"/>
      <point x="251" y="530" type="curve" smooth="yes"/>
      <point x="132" y="530"/>
      <point x="53" y="475"/>
      <point x="53" y="394" type="curve" smooth="yes"/>
      <point x="53" y="346"/>
      <point x="76" y="308"/>
      <point x="126" y="275" type="curve"/>
      <point x="79" y="251"/>
      <point x="53" y="212"/>
      <point x="53" y="166" type="curve" smooth="yes"/>
      <point x="53" y="11"/>
      <point x="297" y="8"/>
      <point x="297" y="-69" type="curve" smooth="yes"/>
      <point x="297" y="-102"/>
      <point x="268" y="-121"/>
      <point x="215" y="-121" type="curve" smooth="yes"/>
      <point x="153" y="-121"/>
      <point x="96" y="-104"/>
      <point x="65" y="-76" type="curve"/>
      <point x="54" y="-100"/>
      <point x="50" y="-122"/>
      <point x="50" y="-155" type="curve"/>
      <point x="96" y="-176"/>
      <point x="155" y="-188"/>
      <point x="221" y="-188" type="curve" smooth="yes"/>
    </contour>
    <contour>
      <point x="195" y="143"/>
      <point x="173" y="161"/>
      <point x="173" y="188" type="curve" smooth="yes"/>
      <point x="173" y="209"/>
      <point x="187" y="227"/>
      <point x="207" y="233" type="curve"/>
      <point x="277" y="200"/>
      <point x="298" y="183"/>
      <point x="298" y="158" type="curve" smooth="yes"/>
      <point x="298" y="136"/>
      <point x="285" y="120"/>
      <point x="261" y="113" type="curve"/>
    </contour>
  </outline>
</glyph>
<glyph name="copyright" format="1">
  <advance width="721"/>
  <unicode hex="00A9"/>
  <outline>
    <contour>
      <point x="529" y="-20"/>
      <point x="667" y="118"/>
      <point x="667" y="287" type="curve" smooth="yes"/>
      <point x="667" y="456"/>
      <point x="529" y="594"/>
      <point x="360" y="594" type="curve" smooth="yes"/>
      <point x="191" y="594"/>
      <point x="53" y="456"/>
      <point x="53" y="287" type="curve" smooth="yes"/>
      <point x="53" y="118"/>
      <point x="191" y="-20"/>
      <point x="360" y="-20" type="curve" smooth="yes"/>
    </contour>
    <contour>
      <point x="408" y="114"/>
      <point x="465" y="137"/>
      <point x="495" y="172" type="curve"/>
      <point x="489" y="198" type="line"/>
      <point x="460" y="182"/>
      <point x="420" y="172"/>
      <point x="376" y="172" type="curve" smooth="yes"/>
      <point x="311" y="172"/>
      <point x="265" y="209"/>
      <point x="265" y="296" type="curve" smooth="yes"/>
      <point x="265" y="357"/>
      <point x="303" y="416"/>
      <point x="349" y="428" type="curve"/>
      <point x="374" y="428"/>
      <point x="425" y="407"/>
      <point x="462" y="381" type="curve"/>
      <point x="475" y="395"/>
      <point x="486" y="429"/>
      <point x="486" y="452" type="curve"/>
      <point x="458" y="463"/>
      <point x="422" y="468"/>
      <point x="382" y="468" type="curve" smooth="yes"/>
      <point x="269" y="468"/>
      <point x="190" y="390"/>
      <point x="190" y="278" type="curve" smooth="yes"/>
      <point x="190" y="173"/>
      <point x="250" y="114"/>
      <point x="354" y="114" type="curve" smooth="yes"/>
    </contour>
    <contour>
      <point x="219" y="31"/>
      <point x="104" y="147"/>
      <point x="104" y="287" type="curve" smooth="yes"/>
      <point x="104" y="428"/>
      <point x="219" y="543"/>
      <point x="360" y="543" type="curve" smooth="yes"/>
      <point x="500" y="543"/>
      <point x="616" y="428"/>
      <point x="616" y="287" type="curve" smooth="yes"/>
      <point x="616" y="147"/>
      <point x="500" y="31"/>
      <point x="360" y="31" type="curve" smooth="yes"/>
    </contour>
  </outline>
</glyph>
<glyph name="ordfeminine" format="1">
  <advance width="346"/>
  <unicode hex="00AA"/>
  <outline>
    <contour>
      <point x="135" y="293"/>
      <point x="171" y="305"/>
      <point x="203" y="325" type="curve"/>
      <point x="209" y="311"/>
      <point x="219" y="301"/>
      <point x="232" y="293" type="curve"/>
      <point x="259" y="295"/>
      <point x="288" y="304"/>
      <point x="310" y="318" type="curve"/>
      <point x="288" y="339"/>
      <point x="282" y="354"/>
      <point x="282" y="386" type="curve" smooth="yes"/>
      <point x="282" y="416"/>
      <point x="289" y="450"/>
      <point x="289" y="485" type="curve" smooth="yes"/>
      <point x="289" y="541"/>
      <point x="250" y="572"/>
      <point x="180" y="572" type="curve" smooth="yes"/>
      <point x="130" y="572"/>
      <point x="78" y="546"/>
      <point x="49" y="507" type="curve"/>
      <point x="59" y="464" type="line"/>
      <point x="82" y="482"/>
      <point x="115" y="493"/>
      <point x="146" y="493" type="curve" smooth="yes"/>
      <point x="181" y="493"/>
      <point x="198" y="479"/>
      <point x="200" y="446" type="curve"/>
      <point x="90" y="438"/>
      <point x="36" y="407"/>
      <point x="36" y="354" type="curve" smooth="yes"/>
      <point x="36" y="319"/>
      <point x="58" y="293"/>
      <point x="106" y="293" type="curve" smooth="yes"/>
    </contour>
    <contour>
      <point x="135" y="346"/>
      <point x="128" y="359"/>
      <point x="128" y="371" type="curve" smooth="yes"/>
      <point x="128" y="395"/>
      <point x="154" y="410"/>
      <point x="200" y="414" type="curve"/>
      <point x="199" y="395"/>
      <point x="196" y="381"/>
      <point x="196" y="363" type="curve" smooth="yes"/>
      <point x="196" y="358" type="line"/>
      <point x="180" y="348"/>
      <point x="161" y="341"/>
      <point x="145" y="339" type="curve"/>
    </contour>
  </outline>
</glyph>
<glyph name="multiply" format="1">
  <advance width="533"/>
  <unicode hex="00D7"/>
  <outline>
    <contour>
      <point x="183" y="122"/>
      <point x="224" y="165"/>
      <point x="267" y="209" type="curve"/>
      <point x="309" y="165"/>
      <point x="350" y="122"/>
      <point x="391" y="76" type="curve"/>
      <point x="420" y="96"/>
      <point x="435" y="111"/>
      <point x="456" y="141" type="curve"/>
      <point x="411" y="182"/>
      <point x="367" y="223"/>
      <point x="323" y="266" type="curve"/>
      <point x="367" y="308"/>
      <point x="411" y="349"/>
      <point x="456" y="390" type="curve"/>
      <point x="435" y="420"/>
      <point x="422" y="432"/>
      <point x="391" y="455" type="curve"/>
      <point x="350" y="410"/>
      <point x="309" y="366"/>
      <point x="267" y="322" type="curve"/>
      <point x="224" y="366"/>
      <point x="183" y="410"/>
      <point x="142" y="455" type="curve"/>
      <point x="112" y="434"/>
      <point x="100" y="421"/>
      <point x="77" y="390" type="curve"/>
      <point x="123" y="349"/>
      <point x="166" y="308"/>
      <point x="210" y="266" type="curve"/>
      <point x="166" y="223"/>
      <point x="123" y="182"/>
      <point x="77" y="141" type="curve"/>
      <point x="97" y="112"/>
      <point x="112" y="98"/>
      <point x="142" y="76" type="curve"/>
    </contour>
  </outline>
</glyph>
<glyph name="eth" format="1">
  <advance width="510"/>
  <unicode hex="00F0"/>
  <outline>
    <contour>
      <point x="470" y="215" type="line"/>
      <point x="470" y="368"/>
      <point x="340" y="501"/>
      <point x="159" y="615" type="curve"/>
      <point x="125" y="573" type="line"/>
      <point x="309" y="425"/>
      <point x="364" y="293"/>
      <point x="364" y="177" type="curve"/>
    </contour>
    <component base="o"/>
    <component base="uni0337" xOffset="76" yOffset="309" xScale="0.85" yScale="0.85"/>
  </outline>
</glyph>
<glyph name="thorn" format="1">
  <advance width="505"/>
  <unicode hex="00FE"/>
  <outline>
    <contour>
      <point x="107" y="-180"/>
      <point x="150" y="-174"/>
      <point x="194" y="-160" type="curve"/>
      <point x="186" y="-121"/>
      <point x="181" y="-68"/>
      <point x="178" y="2" type="curve"/>
      <point x="199" y="-5"/>
      <point x="222" y="-9"/>
      <point x="246" y="-9" type="curve" smooth="yes"/>
      <point x="387" y="-9"/>
      <point x="470" y="73"/>
      <point x="470" y="212" type="curve" smooth="yes"/>
      <point x="470" y="344"/>
      <point x="411" y="413"/>
      <point x="307" y="413" type="curve" smooth="yes"/>
      <point x="258" y="413"/>
      <point x="211" y="394"/>
      <point x="177" y="363" type="curve"/>
      <point x="179" y="444"/>
      <point x="183" y="508"/>
      <point x="187" y="547" type="curve"/>
      <point x="136" y="547"/>
      <point x="93" y="543"/>
      <point x="43" y="527" type="curve"/>
      <point x="56" y="469"/>
      <point x="62" y="377"/>
      <point x="62" y="241" type="curve" smooth="yes"/>
      <point x="62" y="65"/>
      <point x="57" y="-99"/>
      <point x="50" y="-180" type="curve"/>
    </contour>
    <contour>
      <point x="218" y="51"/>
      <point x="195" y="62"/>
      <point x="175" y="82" type="curve"/>
      <point x="173" y="128"/>
      <point x="173" y="221"/>
      <point x="175" y="288" type="curve"/>
      <point x="201" y="302"/>
      <point x="234" y="312"/>
      <point x="264" y="312" type="curve"/>
      <point x="312" y="291"/>
      <point x="341" y="243"/>
      <point x="341" y="177" type="curve" smooth="yes"/>
      <point x="341" y="98"/>
      <point x="305" y="51"/>
      <point x="243" y="51" type="curve" smooth="yes"/>
    </contour>
    <contour>
      <point x="252" y="407" type="move" name="top"/>
    </contour>
    <contour>
      <point x="252" y="0" type="move" name="bottom"/>
    </contour>
  </outline>
</glyph>
<glyph name="dotlessi" format="1">
  <advance width="246"/>
  <unicode hex="0131"/>
  <outline>
    <contour>
      <point x="157" y="-9"/>
      <point x="192" y="0"/>
      <point x="221" y="27" type="curve"/>
      <point x="190" y="61"/>
      <point x="182" y="84"/>
      <point x="182" y="192" type="curve" smooth="yes"/>
      <point x="182" y="294"/>
      <point x="187" y="379"/>
      <point x="194" y="417" type="curve"/>
      <point x="143" y="417"/>
      <point x="100" y="413"/>
      <point x="50" y="397" type="curve"/>
      <point x="63" y="376"/>
      <point x="69" y="322"/>
      <point x="69" y="272" type="curve" smooth="yes"/>
      <point x="69" y="208"/>
      <point x="65" y="144"/>
      <point x="65" y="73" type="curve" smooth="yes"/>
      <point x="65" y="10"/>
      <point x="85" y="-9"/>
      <point x="135" y="-9" type="curve" smooth="yes"/>
    </contour>
    <contour>
      <point x="177" y="0" type="move" name="ogonek"/>
    </contour>
    <contour>
      <point x="130" y="0" type="move" name="bottom"/>
    </contour>
    <contour>
      <point x="125" y="407" type="move" name="top"/>
    </contour>
  </outline>
</glyph>
<glyph name="Eng" format="1">
  <advance width="542"/>
  <unicode hex="014A"/>
  <outline>
    <contour>
      <point x="440" y="-123"/>
      <point x="489" y="-63"/>
      <point x="489" y="63" type="curve" smooth="yes"/>
      <point x="489" y="234" type="line" smooth="yes"/>
      <point x="489" y="336"/>
      <point x="493" y="462"/>
      <point x="497" y="527" type="curve"/>
      <point x="477" y="531"/>
      <point x="459" y="533"/>
      <point x="445" y="533" type="curve" smooth="yes"/>
      <point x="430" y="533"/>
      <point x="416" y="531"/>
      <point x="401" y="527" type="curve"/>
      <point x="409" y="497"/>
      <point x="412" y="420"/>
      <point x="412" y="300" type="curve" smooth="yes"/>
      <point x="412" y="250"/>
      <point x="411" y="193"/>
      <point x="410" y="141" type="curve"/>
      <point x="334" y="269"/>
      <point x="234" y="444"/>
      <point x="192" y="527" type="curve"/>
      <point x="160" y="531"/>
      <point x="135" y="533"/>
      <point x="113" y="533" type="curve" smooth="yes"/>
      <point x="89" y="533"/>
      <point x="56" y="530"/>
      <point x="45" y="527" type="curve"/>
      <point x="52" y="496"/>
      <point x="56" y="417"/>
      <point x="56" y="293" type="curve" smooth="yes"/>
      <point x="56" y="191"/>
      <point x="53" y="65"/>
      <point x="48" y="0" type="curve"/>
      <point x="68" y="-4"/>
      <point x="85" y="-6"/>
      <point x="100" y="-6" type="curve" smooth="yes"/>
      <point x="114" y="-6"/>
      <point x="129" y="-4"/>
      <point x="143" y="0" type="curve"/>
      <point x="136" y="30"/>
      <point x="132" y="107"/>
      <point x="132" y="227" type="curve" smooth="yes"/>
      <point x="132" y="278"/>
      <point x="133" y="334"/>
      <point x="135" y="386" type="curve"/>
      <point x="211" y="257"/>
      <point x="310" y="83"/>
      <point x="353" y="0" type="curve" smooth="yes"/>
      <point x="375" y="-42"/>
      <point x="350" y="-111"/>
      <point x="271" y="-158" type="curve"/>
      <point x="289" y="-189" type="line"/>
    </contour>
    <contour>
      <point x="272" y="527" type="move" name="top"/>
    </contour>
    <contour>
      <point x="272" y="0" type="move" name="bottom"/>
    </contour>
  </outline>
</glyph>
<glyph name="eng" format="1">
  <advance width="511"/>
  <unicode hex="014B"/>
  <outline>
    <contour>
      <point x="384" y="-111"/>
      <point x="451" y="-63"/>
      <point x="451" y="63" type="curve" smooth="yes"/>
      <point x="451" y="115"/>
      <point x="455" y="232"/>
      <point x="455" y="280" type="curve" smooth="yes"/>
      <point x="455" y="362"/>
      <point x="425" y="418"/>
      <point x="338" y="418" type="curve" smooth="yes"/>
      <point x="286" y="418"/>
      <point x="238" y="394"/>
      <point x="203" y="355" type="curve"/>
      <point x="197" y="392"/>
      <point x="177" y="414"/>
      <point x="135" y="414" type="curve" smooth="yes"/>
      <point x="112" y="414"/>
      <point x="74" y="405"/>
      <point x="43" y="378" type="curve"/>
      <point x="74" y="344"/>
      <point x="82" y="321"/>
      <point x="82" y="213" type="curve" smooth="yes"/>
      <point x="82" y="139"/>
      <point x="79" y="57"/>
      <point x="75" y="0" type="curve"/>
      <point x="98" y="-4"/>
      <point x="132" y="-6"/>
      <point x="156" y="-6" type="curve" smooth="yes"/>
      <point x="177" y="-6"/>
      <point x="202" y="-4"/>
      <point x="221" y="0" type="curve"/>
      <point x="208" y="29"/>
      <point x="201" y="82"/>
      <point x="201" y="150" type="curve" smooth="yes"/>
      <point x="201" y="202"/>
      <point x="202" y="247"/>
      <point x="204" y="283" type="curve"/>
      <point x="222" y="297"/>
      <point x="243" y="303"/>
      <point x="271" y="303" type="curve" smooth="yes"/>
      <point x="314" y="303"/>
      <point x="332" y="281"/>
      <point x="332" y="228" type="curve" smooth="yes"/>
      <point x="332" y="106" type="line" smooth="yes"/>
      <point x="332" y="-46"/>
      <point x="299" y="-98"/>
      <point x="233" y="-158" type="curve"/>
      <point x="251" y="-189" type="line"/>
    </contour>
  </outline>
</glyph>
<glyph name="acutecomb" format="1">
  <advance width="223"/>
  <unicode hex="0301"/>
  <outline>
    <contour>
      <point x="93" y="475"/>
      <point x="180" y="514"/>
      <point x="223" y="567" type="curve"/>
      <point x="202" y="602"/>
      <point x="160" y="621"/>
      <point x="103" y="621" type="curve"/>
      <point x="97" y="574"/>
      <point x="52" y="519"/>
      <point x="0" y="495" type="curve"/>
      <point x="10" y="464" type="line"/>
    </contour>
    <contour>
      <point x="112" y="608" type="move" name="top"/>
    </contour>
    <contour>
      <point x="98" y="407" type="move" name="_top"/>
    </contour>
  </outline>
</glyph>
<glyph name="uni0304" format="1">
  <advance width="294"/>
  <unicode hex="0304"/>
  <outline>
    <contour>
      <point x="39" y="502"/>
      <point x="96" y="508"/>
      <point x="146" y="508" type="curve" smooth="yes"/>
      <point x="187" y="508"/>
      <point x="227" y="507"/>
      <point x="272" y="504" type="curve"/>
      <point x="280" y="540"/>
      <point x="282" y="571"/>
      <point x="278" y="606" type="curve"/>
      <point x="255" y="599"/>
      <point x="198" y="592"/>
      <point x="148" y="592" type="curve" smooth="yes"/>
      <point x="107" y="592"/>
      <point x="67" y="593"/>
      <point x="22" y="596" type="curve"/>
      <point x="15" y="560"/>
      <point x="12" y="530"/>
      <point x="16" y="494" type="curve"/>
    </contour>
    <contour>
      <point x="147" y="611" type="move" name="top"/>
    </contour>
    <contour>
      <point x="147" y="407" type="move" name="_top"/>
    </contour>
  </outline>
</glyph>
<glyph name="uni0306" format="1">
  <advance width="292"/>
  <unicode hex="0306"/>
  <outline>
    <contour>
      <point x="219" y="480"/>
      <point x="272" y="530"/>
      <point x="272" y="604" type="curve"/>
      <point x="257" y="613"/>
      <point x="237" y="617"/>
      <point x="214" y="617" type="curve"/>
      <point x="214" y="569"/>
      <point x="196" y="541"/>
      <point x="166" y="541" type="curve" smooth="yes"/>
      <point x="138" y="541"/>
      <point x="120" y="569"/>
      <point x="120" y="617" type="curve"/>
      <point x="78" y="617"/>
      <point x="48" y="612"/>
      <point x="20" y="599" type="curve"/>
      <point x="20" y="528"/>
      <point x="72" y="480"/>
      <point x="145" y="480" type="curve" smooth="yes"/>
    </contour>
    <contour>
      <point x="147" y="612" type="move" name="top"/>
    </contour>
    <contour>
      <point x="147" y="407" type="move" name="_top"/>
    </contour>
  </outline>
</glyph>
<glyph name="uni030A" format="1">
  <advance width="252"/>
  <unicode hex="030A"/>
  <outline>
    <contour>
      <point x="179" y="456"/>
      <point x="225" y="495"/>
      <point x="225" y="551" type="curve" smooth="yes"/>
      <point x="225" y="604"/>
      <point x="189" y="638"/>
      <point x="133" y="638" type="curve" smooth="yes"/>
      <point x="71" y="638"/>
      <point x="27" y="599"/>
      <point x="27" y="542" type="curve" smooth="yes"/>
      <point x="27" y="490"/>
      <point x="63" y="456"/>
      <point x="117" y="456" type="curve" smooth="yes"/>
    </contour>
    <contour>
      <point x="107" y="502"/>
      <point x="95" y="519"/>
      <point x="95" y="545" type="curve" smooth="yes"/>
      <point x="95" y="574"/>
      <point x="108" y="592"/>
      <point x="129" y="592" type="curve"/>
      <point x="147" y="585"/>
      <point x="157" y="568"/>
      <point x="157" y="545" type="curve" smooth="yes"/>
      <point x="157" y="518"/>
      <point x="145" y="502"/>
      <point x="125" y="502" type="curve" smooth="yes"/>
    </contour>
    <contour>
      <point x="126" y="645" type="move" name="top"/>
    </contour>
    <contour>
      <point x="126" y="407" type="move" name="_top"/>
    </contour>
  </outline>
</glyph>
<glyph name="uni030B" format="1">
  <advance width="396"/>
  <unicode hex="030B"/>
  <outline>
    <contour>
      <point x="278" y="475"/>
      <point x="353" y="514"/>
      <point x="396" y="567" type="curve"/>
      <point x="375" y="602"/>
      <point x="333" y="621"/>
      <point x="276" y="621" type="curve"/>
      <point x="270" y="574"/>
      <point x="235" y="519"/>
      <point x="193" y="495" type="curve"/>
      <point x="203" y="464" type="line"/>
    </contour>
    <contour>
      <point x="85" y="475"/>
      <point x="160" y="514"/>
      <point x="203" y="567" type="curve"/>
      <point x="182" y="602"/>
      <point x="140" y="621"/>
      <point x="83" y="621" type="curve"/>
      <point x="77" y="574"/>
      <point x="42" y="519"/>
      <point x="0" y="495" type="curve"/>
      <point x="10" y="464" type="line"/>
    </contour>
    <contour>
      <point x="198" y="621" type="move" name="top"/>
    </contour>
    <contour>
      <point x="168" y="407" type="move" name="_top"/>
    </contour>
  </outline>
</glyph>
<glyph name="uni030C" format="1">
  <advance width="289"/>
  <unicode hex="030C"/>
  <outline>
    <contour>
      <point x="132" y="476"/>
      <point x="169" y="479"/>
      <point x="200" y="490" type="curve"/>
      <point x="224" y="525"/>
      <point x="260" y="575"/>
      <point x="289" y="608" type="curve"/>
      <point x="257" y="614"/>
      <point x="238" y="616"/>
      <point x="212" y="616" type="curve"/>
      <point x="164" y="541" type="line"/>
      <point x="112" y="616" type="line"/>
      <point x="68" y="616"/>
      <point x="31" y="612"/>
      <point x="0" y="602" type="curve"/>
      <point x="22" y="580"/>
      <point x="62" y="522"/>
      <point x="88" y="476" type="curve"/>
    </contour>
    <contour>
      <point x="144" y="616" type="move" name="top"/>
    </contour>
    <contour>
      <point x="141" y="407" type="move" name="_top"/>
    </contour>
  </outline>
</glyph>
<glyph name="uni0326" format="1">
  <advance width="173"/>
  <unicode hex="0326"/>
  <outline>
    <contour>
      <point x="127" y="-208"/>
      <point x="153" y="-148"/>
      <point x="153" y="-63" type="curve"/>
      <point x="120" y="-40" type="line"/>
      <point x="85" y="-45"/>
      <point x="46" y="-62"/>
      <point x="20" y="-86" type="curve"/>
      <point x="40" y="-107"/>
      <point x="55" y="-144"/>
      <point x="55" y="-169" type="curve" smooth="yes"/>
      <point x="55" y="-195"/>
      <point x="49" y="-220"/>
      <point x="37" y="-240" type="curve"/>
      <point x="69" y="-265" type="line"/>
    </contour>
    <contour>
      <point x="86" y="0" type="move" name="_bottom"/>
    </contour>
    <contour>
      <point x="86" y="-268" type="move" name="bottom"/>
    </contour>
  </outline>
</glyph>
<glyph name="uni0337" format="1">
  <advance width="356"/>
  <unicode hex="0337"/>
  <outline>
    <contour>
      <point x="108" y="182"/>
      <point x="130" y="198"/>
      <point x="195" y="232" type="curve" smooth="yes"/>
      <point x="239" y="254"/>
      <point x="295" y="279"/>
      <point x="325" y="289" type="curve"/>
      <point x="321" y="308"/>
      <point x="297" y="355"/>
      <point x="283" y="371" type="curve"/>
      <point x="250" y="346"/>
      <point x="228" y="331"/>
      <point x="163" y="297" type="curve" smooth="yes"/>
      <point x="119" y="275"/>
      <point x="63" y="250"/>
      <point x="33" y="240" type="curve"/>
      <point x="37" y="220"/>
      <point x="61" y="174"/>
      <point x="75" y="158" type="curve"/>
    </contour>
    <contour>
      <point x="179" y="264" type="move" name="_center"/>
    </contour>
  </outline>
</glyph>
<glyph name="uni03A9" format="1">
  <advance width="580"/>
  <unicode hex="03A9"/>
  <outline>
    <contour>
      <point x="96" y="-1"/>
      <point x="145" y="1"/>
      <point x="195" y="1" type="curve" smooth="yes"/>
      <point x="235" y="1" type="line"/>
      <point x="235" y="123" type="line"/>
      <point x="186" y="149"/>
      <point x="157" y="204"/>
      <point x="157" y="275" type="curve" smooth="yes"/>
      <point x="157" y="364"/>
      <point x="218" y="429"/>
      <point x="303" y="429" type="curve"/>
      <point x="376" y="413"/>
      <point x="423" y="351"/>
      <point x="423" y="273" type="curve" smooth="yes"/>
      <point x="423" y="202"/>
      <point x="394" y="149"/>
      <point x="344" y="124" type="curve"/>
      <point x="344" y="1" type="line"/>
      <point x="384" y="1" type="line" smooth="yes"/>
      <point x="435" y="1"/>
      <point x="484" y="-1"/>
      <point x="536" y="-3" type="curve"/>
      <point x="538" y="9"/>
      <point x="539" y="22"/>
      <point x="539" y="34" type="curve" smooth="yes"/>
      <point x="539" y="48"/>
      <point x="538" y="65"/>
      <point x="536" y="81" type="curve"/>
      <point x="495" y="70"/>
      <point x="452" y="61"/>
      <point x="411" y="58" type="curve"/>
      <point x="411" y="101" type="line"/>
      <point x="496" y="141"/>
      <point x="550" y="220"/>
      <point x="550" y="318" type="curve" smooth="yes"/>
      <point x="550" y="447"/>
      <point x="452" y="533"/>
      <point x="307" y="533" type="curve" smooth="yes"/>
      <point x="144" y="533"/>
      <point x="30" y="434"/>
      <point x="30" y="293" type="curve" smooth="yes"/>
      <point x="30" y="196"/>
      <point x="83" y="124"/>
      <point x="169" y="93" type="curve"/>
      <point x="169" y="58" type="line"/>
      <point x="128" y="61"/>
      <point x="86" y="70"/>
      <point x="44" y="81" type="curve"/>
      <point x="41" y="65"/>
      <point x="40" y="48"/>
      <point x="40" y="34" type="curve" smooth="yes"/>
      <point x="40" y="22"/>
      <point x="41" y="9"/>
      <point x="44" y="-3" type="curve"/>
    </contour>
  </outline>
</glyph>
<glyph name="emdash" format="1">
  <advance width="761"/>
  <unicode hex="2014"/>
  <outline>
    <contour>
      <point x="126" y="135"/>
      <point x="263" y="144"/>
      <point x="393" y="144" type="curve" smooth="yes"/>
      <point x="497" y="144"/>
      <point x="603" y="143"/>
      <point x="720" y="139" type="curve"/>
      <point x="720" y="185"/>
      <point x="713" y="225"/>
      <point x="689" y="271" type="curve"/>
      <point x="634" y="261"/>
      <point x="496" y="252"/>
      <point x="368" y="252" type="curve" smooth="yes"/>
      <point x="263" y="252"/>
      <point x="158" y="253"/>
      <point x="42" y="257" type="curve"/>
      <point x="42" y="211"/>
      <point x="49" y="171"/>
      <point x="71" y="125" type="curve"/>
    </contour>
  </outline>
</glyph>
<glyph name="guilsinglleft" format="1">
  <advance width="278"/>
  <unicode hex="2039"/>
  <outline>
    <contour>
      <point x="203" y="56"/>
      <point x="224" y="78"/>
      <point x="244" y="111" type="curve"/>
      <point x="133" y="222" type="line"/>
      <point x="244" y="334" type="line"/>
      <point x="224" y="367"/>
      <point x="203" y="390"/>
      <point x="165" y="419" type="curve"/>
      <point x="122" y="355"/>
      <point x="80" y="305"/>
      <point x="23" y="241" type="curve"/>
      <point x="23" y="204" type="line"/>
      <point x="80" y="140"/>
      <point x="122" y="90"/>
      <point x="165" y="27" type="curve"/>
    </contour>
  </outline>
</glyph>
<glyph name="fi" format="1">
  <advance width="527"/>
  <unicode hex="FB01"/>
  <outline>
    <contour>
      <point x="172" y="-83"/>
      <point x="205" y="-31"/>
      <point x="205" y="63" type="curve" smooth="yes"/>
      <point x="205" y="108"/>
      <point x="198" y="178"/>
      <point x="198" y="282" type="curve" smooth="yes"/>
      <point x="198" y="330" type="line"/>
      <point x="349" y="330" type="line"/>
      <point x="350" y="312"/>
      <point x="350" y="291"/>
      <point x="350" y="272" type="curve" smooth="yes"/>
      <point x="350" y="208"/>
      <point x="346" y="144"/>
      <point x="346" y="73" type="curve" smooth="yes"/>
      <point x="346" y="10"/>
      <point x="366" y="-9"/>
      <point x="417" y="-9" type="curve" smooth="yes"/>
      <point x="438" y="-9"/>
      <point x="473" y="0"/>
      <point x="502" y="27" type="curve"/>
      <point x="471" y="61"/>
      <point x="463" y="84"/>
      <point x="463" y="192" type="curve" smooth="yes"/>
      <point x="463" y="294"/>
      <point x="468" y="379"/>
      <point x="475" y="417" type="curve"/>
      <point x="428" y="417"/>
      <point x="388" y="413"/>
      <point x="341" y="397" type="curve"/>
      <point x="200" y="397" type="line"/>
      <point x="204" y="469"/>
      <point x="213" y="494"/>
      <point x="233" y="509" type="curve"/>
      <point x="271" y="505"/>
      <point x="314" y="485"/>
      <point x="381" y="445" type="curve"/>
      <point x="397" y="469"/>
      <point x="416" y="530"/>
      <point x="416" y="561" type="curve"/>
      <point x="374" y="577"/>
      <point x="323" y="585"/>
      <point x="267" y="585" type="curve" smooth="yes"/>
      <point x="170" y="585"/>
      <point x="96" y="516"/>
      <point x="78" y="408" type="curve"/>
      <point x="58" y="393"/>
      <point x="37" y="380"/>
      <point x="12" y="368" type="curve"/>
      <point x="12" y="335"/>
      <point x="22" y="328"/>
      <point x="78" y="327" type="curve"/>
      <point x="94" y="-5"/>
      <point x="87" y="-61"/>
      <point x="38" y="-133" type="curve"/>
      <point x="66" y="-159" type="line"/>
    </contour>
    <contour>
      <point x="462" y="0" type="move" name="ogonek"/>
    </contour>
    <contour>
      <point x="151" y="0" type="move" name="bottom"/>
    </contour>
    <contour>
      <point x="151" y="407" type="move" name="top"/>
    </contour>
  </outline>
</glyph>
<glyph name="f_t" format="1">
  <advance width="597"/>
  <outline>
    <contour>
      <point x="173" y="-83"/>
      <point x="205" y="-31"/>
      <point x="205" y="63" type="curve" smooth="yes"/>
      <point x="205" y="113"/>
      <point x="198" y="166"/>
      <point x="198" y="330" type="curve"/>
      <point x="366" y="330" type="line"/>
      <point x="367" y="309"/>
      <point x="368" y="286"/>
      <point x="368" y="275" type="curve" smooth="yes"/>
      <point x="368" y="200"/>
      <point x="364" y="146"/>
      <point x="364" y="86" type="curve" smooth="yes"/>
      <point x="364" y="16"/>
      <point x="385" y="-9"/>
      <point x="444" y="-9" type="curve" smooth="yes"/>
      <point x="495" y="-9"/>
      <point x="548" y="16"/>
      <point x="576" y="53" type="curve"/>
      <point x="570" y="92" type="line"/>
      <point x="549" y="87"/>
      <point x="522" y="84"/>
      <point x="492" y="83" type="curve"/>
      <point x="485" y="124"/>
      <point x="481" y="183"/>
      <point x="481" y="252" type="curve" smooth="yes"/>
      <point x="481" y="279"/>
      <point x="482" y="305"/>
      <point x="484" y="330" type="curve"/>
      <point x="521" y="329"/>
      <point x="548" y="325"/>
      <point x="567" y="318" type="curve"/>
      <point x="579" y="347"/>
      <point x="584" y="371"/>
      <point x="584" y="404" type="curve"/>
      <point x="562" y="400"/>
      <point x="527" y="397"/>
      <point x="486" y="396" type="curve"/>
      <point x="485" y="416"/>
      <point x="483" y="442"/>
      <point x="481" y="466" type="curve"/>
      <point x="432" y="469" type="line"/>
      <point x="395" y="414"/>
      <point x="344" y="397"/>
      <point x="299" y="397" type="curve" smooth="yes"/>
      <point x="200" y="397" type="line"/>
      <point x="204" y="466"/>
      <point x="212" y="493"/>
      <point x="233" y="509" type="curve"/>
      <point x="263" y="505"/>
      <point x="296" y="489"/>
      <point x="347" y="455" type="curve"/>
      <point x="361" y="479"/>
      <point x="376" y="540"/>
      <point x="376" y="571" type="curve"/>
      <point x="343" y="580"/>
      <point x="306" y="585"/>
      <point x="267" y="585" type="curve" smooth="yes"/>
      <point x="170" y="585"/>
      <point x="96" y="516"/>
      <point x="78" y="408" type="curve"/>
      <point x="58" y="394"/>
      <point x="37" y="381"/>
      <point x="12" y="368" type="curve"/>
      <point x="12" y="334"/>
      <point x="23" y="328"/>
      <point x="78" y="327" type="curve"/>
      <point x="93" y="0"/>
      <point x="88" y="-60"/>
      <point x="38" y="-133" type="curve"/>
      <point x="66" y="-159" type="line"/>
    </contour>
  </outline>
</glyph>
